<svg class="main-svg" xmlns="http://www.w3.org/2000/svg" xmlns:xlink="http://www.w3.org/1999/xlink" width="700" height="500" style="" viewBox="0 0 700 500"><rect x="0" y="0" width="700" height="500" style="fill: rgb(255, 255, 255); fill-opacity: 1;"/><defs id="defs-b1a4b2"><g class="clips"><clipPath id="clipb1a4b2xyplot" class="plotclip"><rect width="540" height="360"/></clipPath><clipPath class="axesclip" id="clipb1a4b2x"><rect x="80" y="0" width="540" height="500"/></clipPath><clipPath class="axesclip" id="clipb1a4b2y"><rect x="0" y="60" width="700" height="360"/></clipPath><clipPath class="axesclip" id="clipb1a4b2xy"><rect x="80" y="60" width="540" height="360"/></clipPath></g><g class="gradients"/><g class="patterns"/></defs><g class="bglayer"/><g class="layer-below"><g class="imagelayer"/><g class="shapelayer"/></g><g class="cartesianlayer"><g class="subplot xy"><g class="layer-subplot"><g class="shapelayer"/><g class="imagelayer"/></g><g class="minor-gridlayer"><g class="x"/><g class="y"/></g><g class="gridlayer"><g class="x"/><g class="y"/></g><g class="zerolinelayer"/><g class="layer-between"><g class="shapelayer"/><g class="imagelayer"/></g><path class="xlines-below"/><path class="ylines-below"/><g class="overlines-below"/><g class="xaxislayer-below"/><g class="yaxislayer-below"/><g class="overaxes-below"/><g class="overplot"><g class="xy" transform="translate(80,60)" clip-path="url(#clipb1a4b2xyplot)"><g class="scatterlayer mlayer"><g class="trace scatter trace08f52e" style="stroke-miterlimit: 2; opacity: 1;"><g class="fills"/><g class="errorbars"/><g class="lines"><path class="js-line" d="M0,300.12L3.72,299.73L7.45,290.9L11.17,290.9L14.9,304.57L18.62,315.52L22.34,329.72L26.07,325.33L29.79,309.58L33.52,300.34L37.24,300.68L44.69,315.73L48.41,313.37L52.14,311.08L55.86,314.57L59.59,330.81L63.31,342L67.03,338.82L70.76,325.33L74.48,301.55L78.21,284.39L81.93,269.62L85.66,258.67L100.55,228.48L104.28,218.8L108,214.18L111.72,212.18L119.17,214.85L122.9,214.85L126.62,214.85L130.34,216.17L137.79,222.06L141.52,223.27L145.24,222.58L148.97,220.11L152.69,212.85L156.41,201.41L163.86,181.25L167.59,177.76L171.31,175.65L175.03,174.95L182.48,167.08L186.21,159.03L197.38,128.95L201.1,118.69L204.83,112.53L208.55,103.51L212.28,99.62L216,98.05L223.45,90.9L227.17,89.3L230.9,83.62L234.62,80.34L238.34,79.51L242.07,73.52L245.79,71.92L249.52,67.9L256.97,52.22L260.69,46.28L264.41,40.91L268.14,53.9L271.86,38.43L275.59,35.93L283.03,30.89L286.76,32.58L290.48,39.26L294.21,48.83L297.93,56.4L301.66,62.19L309.1,62.19L312.83,63.83L316.55,67.9L320.28,73.52L324,80.63L327.72,86.06L331.45,93.3L335.17,98.83L350.07,111.94L353.79,118.07L361.24,131.95L364.97,137.95L368.69,142.38L372.41,148.92L376.14,152.51L379.86,153.05L383.59,151.79L387.31,145.3L391.03,143.11L394.76,138.69L402.21,134.96L405.93,128.95L409.66,123.86L413.38,114.2L417.1,109.66L420.83,98.83L424.55,94.89L428.28,88.49L432,79.51L435.72,76.19L439.45,67.09L443.17,66.28L446.9,65.46L450.62,61.8L454.34,64.65L458.07,59.72L465.52,56.4L469.24,53.06L472.97,48.27L476.69,40.91L480.41,28.34L484.14,22.34L487.86,18L491.59,18L506.48,29.19L510.21,34.26L517.66,45.42L521.38,51.49L525.1,58.07L528.83,60.89L540,64.65" style="vector-effect: none; fill: none; stroke: rgb(99, 110, 250); stroke-opacity: 1; stroke-width: 2px; opacity: 1;"/></g><g class="points"/><g class="text"/></g></g></g></g><path class="xlines-above crisp" d="M0,0" style="fill: none;"/><path class="ylines-above crisp" d="M0,0" style="fill: none;"/><g class="overlines-above"/><g class="xaxislayer-above"/><g class="yaxislayer-above"/><g class="overaxes-above"/></g></g><g class="polarlayer"/><g class="smithlayer"/><g class="ternarylayer"/><g class="geolayer"/><g class="funnelarealayer"/><g class="pielayer"/><g class="iciclelayer"/><g class="treemaplayer"/><g class="sunburstlayer"/><g class="glimages"/><defs id="topdefs-b1a4b2"><g class="clips"/></defs><g class="layer-above"><g class="imagelayer"/><g class="shapelayer"/></g><g class="infolayer"><g class="g-gtitle"/></g></svg>