<svg class="main-svg" xmlns="http://www.w3.org/2000/svg" xmlns:xlink="http://www.w3.org/1999/xlink" width="700" height="500" style="" viewBox="0 0 700 500"><rect x="0" y="0" width="700" height="500" style="fill: rgb(255, 255, 255); fill-opacity: 1;"/><defs id="defs-d1f492"><g class="clips"><clipPath id="clipd1f492xyplot" class="plotclip"><rect width="540" height="360"/></clipPath><clipPath class="axesclip" id="clipd1f492x"><rect x="80" y="0" width="540" height="500"/></clipPath><clipPath class="axesclip" id="clipd1f492y"><rect x="0" y="60" width="700" height="360"/></clipPath><clipPath class="axesclip" id="clipd1f492xy"><rect x="80" y="60" width="540" height="360"/></clipPath></g><g class="gradients"/><g class="patterns"/></defs><g class="bglayer"/><g class="layer-below"><g class="imagelayer"/><g class="shapelayer"/></g><g class="cartesianlayer"><g class="subplot xy"><g class="layer-subplot"><g class="shapelayer"/><g class="imagelayer"/></g><g class="minor-gridlayer"><g class="x"/><g class="y"/></g><g class="gridlayer"><g class="x"/><g class="y"/></g><g class="zerolinelayer"/><g class="layer-between"><g class="shapelayer"/><g class="imagelayer"/></g><path class="xlines-below"/><path class="ylines-below"/><g class="overlines-below"/><g class="xaxislayer-below"/><g class="yaxislayer-below"/><g class="overaxes-below"/><g class="overplot"><g class="xy" transform="translate(80,60)" clip-path="url(#clipd1f492xyplot)"><g class="scatterlayer mlayer"><g class="trace scatter trace12fcfb" style="stroke-miterlimit: 2; opacity: 1;"><g class="fills"/><g class="errorbars"/><g class="lines"><path class="js-line" d="M0,290.47L3.65,295.03L7.3,304.6L14.59,329.49L18.24,333.17L21.89,342L25.54,336.33L29.19,329.12L32.84,318.74L36.49,310.32L40.14,309.36L43.78,310.69L47.43,313.29L51.08,311.81L54.73,308.81L58.38,303.82L62.03,296.66L65.68,282.76L69.32,272.58L76.62,245.96L80.27,234.99L83.92,225.12L87.57,221.72L91.22,218.97L94.86,215.24L98.51,212.87L102.16,208.07L105.81,206.12L109.46,202.16L113.11,196.65L116.76,189.42L120.41,184.97L124.05,183.97L127.7,185.47L131.35,189.35L138.65,194.74L142.3,197.12L145.95,197.6L149.59,194.56L160.54,177.88L164.19,174.26L167.84,170.97L171.49,168.98L175.14,164.68L178.78,159.19L186.08,143.43L189.73,135.02L200.68,104.47L204.32,95.08L211.62,79.5L215.27,73.69L222.57,62.8L226.22,57.2L229.86,52.77L233.51,49.57L248.11,38.91L251.76,34.45L255.41,30.58L259.05,28.63L262.7,26.66L266.35,27.32L277.3,29.93L280.95,31.23L291.89,35.06L295.54,37.75L302.84,43.72L306.49,47.01L310.14,51.49L313.78,59.7L321.08,78.88L324.73,83.17L328.38,85.59L332.03,86.19L342.97,89.78L346.62,89.78L350.27,90.38L353.92,92.74L361.22,96.83L364.86,98.42L368.51,102.56L372.16,108.63L375.81,111.57L379.46,113.14L383.11,110.4L386.76,108.63L397.7,108.63L401.35,104.26L412.3,87.4L415.95,79.5L430.54,55.94L434.19,52.77L437.84,52.13L441.49,52.77L445.14,52.77L448.78,50.85L456.08,43.92L459.73,38.91L463.38,35.73L467.03,30.98L470.68,26.85L474.32,18.91L477.97,21.46L481.62,20.19L485.27,19.35L488.92,19.35L492.57,18L496.22,20.02L499.86,20.02L503.51,22.03L507.16,22.69L510.81,26.66L514.46,31.23L518.11,38.42L525.41,56.57L529.05,63.02L536.35,71.37L540,79.5" style="vector-effect: none; fill: none; stroke: rgb(99, 110, 250); stroke-opacity: 1; stroke-width: 2px; opacity: 1;"/></g><g class="points"/><g class="text"/></g></g></g></g><path class="xlines-above crisp" d="M0,0" style="fill: none;"/><path class="ylines-above crisp" d="M0,0" style="fill: none;"/><g class="overlines-above"/><g class="xaxislayer-above"/><g class="yaxislayer-above"/><g class="overaxes-above"/></g></g><g class="polarlayer"/><g class="smithlayer"/><g class="ternarylayer"/><g class="geolayer"/><g class="funnelarealayer"/><g class="pielayer"/><g class="iciclelayer"/><g class="treemaplayer"/><g class="sunburstlayer"/><g class="glimages"/><defs id="topdefs-d1f492"><g class="clips"/></defs><g class="layer-above"><g class="imagelayer"/><g class="shapelayer"/></g><g class="infolayer"><g class="g-gtitle"/></g></svg>