<svg class="main-svg" xmlns="http://www.w3.org/2000/svg" xmlns:xlink="http://www.w3.org/1999/xlink" width="700" height="500" style="" viewBox="0 0 700 500"><rect x="0" y="0" width="700" height="500" style="fill: rgb(255, 255, 255); fill-opacity: 1;"/><defs id="defs-d28c3b"><g class="clips"><clipPath id="clipd28c3bxyplot" class="plotclip"><rect width="540" height="360"/></clipPath><clipPath class="axesclip" id="clipd28c3bx"><rect x="80" y="0" width="540" height="500"/></clipPath><clipPath class="axesclip" id="clipd28c3by"><rect x="0" y="60" width="700" height="360"/></clipPath><clipPath class="axesclip" id="clipd28c3bxy"><rect x="80" y="60" width="540" height="360"/></clipPath></g><g class="gradients"/><g class="patterns"/></defs><g class="bglayer"/><g class="layer-below"><g class="imagelayer"/><g class="shapelayer"/></g><g class="cartesianlayer"><g class="subplot xy"><g class="layer-subplot"><g class="shapelayer"/><g class="imagelayer"/></g><g class="minor-gridlayer"><g class="x"/><g class="y"/></g><g class="gridlayer"><g class="x"/><g class="y"/></g><g class="zerolinelayer"/><g class="layer-between"><g class="shapelayer"/><g class="imagelayer"/></g><path class="xlines-below"/><path class="ylines-below"/><g class="overlines-below"/><g class="xaxislayer-below"/><g class="yaxislayer-below"/><g class="overaxes-below"/><g class="overplot"><g class="xy" transform="translate(80,60)" clip-path="url(#clipd28c3bxyplot)"><g class="scatterlayer mlayer"><g class="trace scatter trace30ad60" style="stroke-miterlimit: 2; opacity: 1;"><g class="fills"/><g class="errorbars"/><g class="lines"><path class="js-line" d="M0,342L3.62,337.87L7.25,338.01L10.87,339.87L14.5,339.25L18.12,334.22L21.74,325.39L25.37,322.94L28.99,318.54L32.62,317.26L36.24,317.58L39.87,308.99L43.49,304.5L47.11,303.06L50.74,305.55L54.36,299.88L57.99,286.6L72.48,231.84L76.11,215.45L83.36,179.62L86.98,165.91L90.6,151.56L94.23,143.79L97.85,141.3L101.48,142.79L105.1,146.24L108.72,148.19L112.35,147.22L115.97,144.77L119.6,141.8L123.22,140.3L130.47,138.79L134.09,136.76L137.72,133.17L141.34,126.87L144.97,125.81L148.59,123.8L155.84,119.73L159.46,112.97L163.09,108.18L166.71,101.57L188.46,68.94L192.08,65.22L195.7,62.38L199.33,57.78L206.58,52.52L210.2,51.93L213.83,53.11L217.45,51.93L221.07,50.24L224.7,47.15L231.95,39.83L235.57,37.97L246.44,30.97L250.07,27.94L257.32,23.63L260.94,22.76L268.19,20.98L271.81,21.77L275.44,22.39L279.06,24.87L289.93,33.98L293.56,35.76L300.81,42.29L304.43,44.12L308.05,45.94L311.68,48.95L315.3,50.8L318.93,53.7L322.55,56.04L326.17,56.62L329.8,57.2L333.42,56.93L337.05,55.46L340.67,60.09L344.3,66.57L347.92,82.15L355.17,103.84L358.79,108.24L373.29,82.71L376.91,83.27L380.54,84.94L384.16,82.15L387.79,82.15L391.41,77.34L395.03,74.76L398.66,73.61L405.91,70.11L409.53,71.35L413.15,72.45L416.78,71.87L420.4,69.13L424.03,62.95L434.9,46.55L438.52,42.9L442.15,39.21L445.77,37.34L449.4,34.84L453.02,30.97L456.64,29.76L460.27,27.32L463.89,24.53L467.52,22.76L474.77,19.79L478.39,19.26L496.51,19.26L500.13,18L503.76,18L507.38,20.98L514.63,19.26L518.26,19.26L525.5,19.89L529.13,19.26L532.75,19.26L536.38,18L540,18" style="vector-effect: none; fill: none; stroke: rgb(99, 110, 250); stroke-opacity: 1; stroke-width: 2px; opacity: 1;"/></g><g class="points"/><g class="text"/></g></g></g></g><path class="xlines-above crisp" d="M0,0" style="fill: none;"/><path class="ylines-above crisp" d="M0,0" style="fill: none;"/><g class="overlines-above"/><g class="xaxislayer-above"/><g class="yaxislayer-above"/><g class="overaxes-above"/></g></g><g class="polarlayer"/><g class="smithlayer"/><g class="ternarylayer"/><g class="geolayer"/><g class="funnelarealayer"/><g class="pielayer"/><g class="iciclelayer"/><g class="treemaplayer"/><g class="sunburstlayer"/><g class="glimages"/><defs id="topdefs-d28c3b"><g class="clips"/></defs><g class="layer-above"><g class="imagelayer"/><g class="shapelayer"/></g><g class="infolayer"><g class="g-gtitle"/></g></svg>