<svg class="main-svg" xmlns="http://www.w3.org/2000/svg" xmlns:xlink="http://www.w3.org/1999/xlink" width="700" height="500" style="" viewBox="0 0 700 500"><rect x="0" y="0" width="700" height="500" style="fill: rgb(255, 255, 255); fill-opacity: 1;"/><defs id="defs-a23735"><g class="clips"><clipPath id="clipa23735xyplot" class="plotclip"><rect width="540" height="360"/></clipPath><clipPath class="axesclip" id="clipa23735x"><rect x="80" y="0" width="540" height="500"/></clipPath><clipPath class="axesclip" id="clipa23735y"><rect x="0" y="60" width="700" height="360"/></clipPath><clipPath class="axesclip" id="clipa23735xy"><rect x="80" y="60" width="540" height="360"/></clipPath></g><g class="gradients"/><g class="patterns"/></defs><g class="bglayer"/><g class="layer-below"><g class="imagelayer"/><g class="shapelayer"/></g><g class="cartesianlayer"><g class="subplot xy"><g class="layer-subplot"><g class="shapelayer"/><g class="imagelayer"/></g><g class="minor-gridlayer"><g class="x"/><g class="y"/></g><g class="gridlayer"><g class="x"/><g class="y"/></g><g class="zerolinelayer"/><g class="layer-between"><g class="shapelayer"/><g class="imagelayer"/></g><path class="xlines-below"/><path class="ylines-below"/><g class="overlines-below"/><g class="xaxislayer-below"/><g class="yaxislayer-below"/><g class="overaxes-below"/><g class="overplot"><g class="xy" transform="translate(80,60)" clip-path="url(#clipa23735xyplot)"><g class="scatterlayer mlayer"><g class="trace scatter trace5d9cc1" style="stroke-miterlimit: 2; opacity: 1;"><g class="fills"/><g class="errorbars"/><g class="lines"><path class="js-line" d="M0,256.06L3.88,255.12L7.77,264.57L15.54,297.32L19.42,297.09L23.31,291.59L27.19,289L31.08,293.3L34.96,307.95L38.85,309.24L42.73,311.37L46.62,318.84L50.5,338.01L54.39,342L58.27,332.2L62.16,314.73L66.04,301.22L69.93,294.11L73.81,285.05L81.58,266.03L85.47,259.78L93.24,250.84L97.12,243.52L101.01,238.5L104.89,234.93L108.78,233.11L112.66,229.72L124.32,211.94L128.2,210.35L132.09,207.72L135.97,206.21L147.63,204.44L151.51,201.16L159.28,198.53L163.17,194.87L167.05,190.07L170.94,181.32L174.82,169.26L178.71,161.49L190.36,137.38L194.24,129.31L205.9,108.36L209.78,99.77L217.55,80.17L221.44,72.53L225.32,66.67L229.21,64.69L233.09,66.23L236.98,66.93L244.75,72.42L248.63,72.53L252.52,73.17L256.4,71.88L260.29,68.64L264.17,64.03L271.94,56.66L275.83,53.25L283.6,47.12L287.48,46.46L291.37,47.12L295.25,49.11L306.91,62.7L310.79,66.01L314.68,68.64L318.56,72.53L330.22,83.79L334.1,86.4L341.87,91.56L345.76,96.64L349.64,101.63L353.53,104.45L357.41,108.96L361.29,112.14L369.06,123.3L372.95,129.31L380.72,135.79L384.6,140.97L388.49,144.06L392.37,150L400.14,164.85L404.03,167.06L407.91,162.06L411.8,150L415.68,138L419.57,129.91L435.11,107.04L438.99,102.25L442.88,96.64L446.76,92.84L454.53,85.75L458.42,83.13L470.07,77.01L473.96,74.46L481.73,65.35L485.61,57.33L489.5,49.8L493.38,39.06L497.27,31.49L501.15,25.88L505.04,20.92L508.92,19.45L512.81,18L516.69,18.17L524.46,24.46L528.35,29.4L532.23,32.19L536.12,32.88L540,34.27" style="vector-effect: none; fill: none; stroke: rgb(99, 110, 250); stroke-opacity: 1; stroke-width: 2px; opacity: 1;"/></g><g class="points"/><g class="text"/></g></g></g></g><path class="xlines-above crisp" d="M0,0" style="fill: none;"/><path class="ylines-above crisp" d="M0,0" style="fill: none;"/><g class="overlines-above"/><g class="xaxislayer-above"/><g class="yaxislayer-above"/><g class="overaxes-above"/></g></g><g class="polarlayer"/><g class="smithlayer"/><g class="ternarylayer"/><g class="geolayer"/><g class="funnelarealayer"/><g class="pielayer"/><g class="iciclelayer"/><g class="treemaplayer"/><g class="sunburstlayer"/><g class="glimages"/><defs id="topdefs-a23735"><g class="clips"/></defs><g class="layer-above"><g class="imagelayer"/><g class="shapelayer"/></g><g class="infolayer"><g class="g-gtitle"/></g></svg>