<svg class="main-svg" xmlns="http://www.w3.org/2000/svg" xmlns:xlink="http://www.w3.org/1999/xlink" width="700" height="500" style="" viewBox="0 0 700 500"><rect x="0" y="0" width="700" height="500" style="fill: rgb(255, 255, 255); fill-opacity: 1;"/><defs id="defs-c532a7"><g class="clips"><clipPath id="clipc532a7xyplot" class="plotclip"><rect width="540" height="360"/></clipPath><clipPath class="axesclip" id="clipc532a7x"><rect x="80" y="0" width="540" height="500"/></clipPath><clipPath class="axesclip" id="clipc532a7y"><rect x="0" y="60" width="700" height="360"/></clipPath><clipPath class="axesclip" id="clipc532a7xy"><rect x="80" y="60" width="540" height="360"/></clipPath></g><g class="gradients"/><g class="patterns"/></defs><g class="bglayer"/><g class="layer-below"><g class="imagelayer"/><g class="shapelayer"/></g><g class="cartesianlayer"><g class="subplot xy"><g class="layer-subplot"><g class="shapelayer"/><g class="imagelayer"/></g><g class="minor-gridlayer"><g class="x"/><g class="y"/></g><g class="gridlayer"><g class="x"/><g class="y"/></g><g class="zerolinelayer"/><g class="layer-between"><g class="shapelayer"/><g class="imagelayer"/></g><path class="xlines-below"/><path class="ylines-below"/><g class="overlines-below"/><g class="xaxislayer-below"/><g class="yaxislayer-below"/><g class="overaxes-below"/><g class="overplot"><g class="xy" transform="translate(80,60)" clip-path="url(#clipc532a7xyplot)"><g class="scatterlayer mlayer"><g class="trace scatter trace67c944" style="stroke-miterlimit: 2; opacity: 1;"><g class="fills"/><g class="errorbars"/><g class="lines"><path class="js-line" d="M0,279.6L3.67,259.01L7.35,247.45L11.02,262.18L14.69,281.16L18.37,293.89L22.04,315.03L25.71,328.12L29.39,331.35L33.06,336.24L36.73,321.23L40.41,312.19L44.08,323.91L47.76,327.51L51.43,332.76L55.1,342L58.78,325.88L62.45,307.06L66.12,281.2L69.8,254.96L73.47,243.58L80.82,232.01L84.49,228.17L88.16,222.49L91.84,212.42L95.51,201.99L99.18,197.27L102.86,196.81L106.53,200.48L110.2,201.39L113.88,203.19L124.9,203.64L128.57,201.99L135.92,197.54L139.59,190.23L143.27,182.39L146.94,176.81L150.61,172.87L154.29,171.57L157.96,170.61L161.63,167.19L165.31,165.22L168.98,162.23L172.65,158.18L176.33,151.97L191.02,126.89L194.69,121.96L216.73,91.82L220.41,88.26L224.08,84.74L227.76,82.65L231.43,79.81L235.1,75.18L238.78,71.08L242.45,65.7L249.8,58.38L253.47,56.58L257.14,56L260.82,54.64L275.51,48.23L279.18,48.23L282.86,48.94L286.53,51.84L290.2,54.82L293.88,56.52L297.55,58.38L301.22,57.17L304.9,55.89L308.57,57.76L312.24,59.51L315.92,62.67L319.59,67.54L323.27,74.6L330.61,86.03L334.29,93.56L341.63,109.82L345.31,119.18L352.65,123.06L356.33,126.34L367.35,138.02L371.02,140.6L374.69,140.08L378.37,138.54L382.04,137.5L385.71,132.78L389.39,129.18L393.06,127.16L396.73,123.58L400.41,122.54L404.08,118.62L407.76,111.23L411.43,104.32L415.1,99.84L422.45,92.12L426.12,86.52L433.47,73.43L437.14,65.1L444.49,51.84L448.16,49.44L451.84,46.41L455.51,47.02L466.53,45.19L470.2,42.12L477.55,35.87L481.22,32.7L488.57,23.63L492.24,19.9L495.92,18L499.59,18L503.27,19.9L506.94,23.04L517.96,39.01L521.63,43.35L525.31,47.02L528.98,51.84L536.33,66.31L540,72.84" style="vector-effect: none; fill: none; stroke: rgb(99, 110, 250); stroke-opacity: 1; stroke-width: 2px; opacity: 1;"/></g><g class="points"/><g class="text"/></g></g></g></g><path class="xlines-above crisp" d="M0,0" style="fill: none;"/><path class="ylines-above crisp" d="M0,0" style="fill: none;"/><g class="overlines-above"/><g class="xaxislayer-above"/><g class="yaxislayer-above"/><g class="overaxes-above"/></g></g><g class="polarlayer"/><g class="smithlayer"/><g class="ternarylayer"/><g class="geolayer"/><g class="funnelarealayer"/><g class="pielayer"/><g class="iciclelayer"/><g class="treemaplayer"/><g class="sunburstlayer"/><g class="glimages"/><defs id="topdefs-c532a7"><g class="clips"/></defs><g class="layer-above"><g class="imagelayer"/><g class="shapelayer"/></g><g class="infolayer"><g class="g-gtitle"/></g></svg>