<svg class="main-svg" xmlns="http://www.w3.org/2000/svg" xmlns:xlink="http://www.w3.org/1999/xlink" width="700" height="500" style="" viewBox="0 0 700 500"><rect x="0" y="0" width="700" height="500" style="fill: rgb(255, 255, 255); fill-opacity: 1;"/><defs id="defs-b9dfa1"><g class="clips"><clipPath id="clipb9dfa1xyplot" class="plotclip"><rect width="540" height="360"/></clipPath><clipPath class="axesclip" id="clipb9dfa1x"><rect x="80" y="0" width="540" height="500"/></clipPath><clipPath class="axesclip" id="clipb9dfa1y"><rect x="0" y="60" width="700" height="360"/></clipPath><clipPath class="axesclip" id="clipb9dfa1xy"><rect x="80" y="60" width="540" height="360"/></clipPath></g><g class="gradients"/><g class="patterns"/></defs><g class="bglayer"/><g class="layer-below"><g class="imagelayer"/><g class="shapelayer"/></g><g class="cartesianlayer"><g class="subplot xy"><g class="layer-subplot"><g class="shapelayer"/><g class="imagelayer"/></g><g class="minor-gridlayer"><g class="x"/><g class="y"/></g><g class="gridlayer"><g class="x"/><g class="y"/></g><g class="zerolinelayer"/><g class="layer-between"><g class="shapelayer"/><g class="imagelayer"/></g><path class="xlines-below"/><path class="ylines-below"/><g class="overlines-below"/><g class="xaxislayer-below"/><g class="yaxislayer-below"/><g class="overaxes-below"/><g class="overplot"><g class="xy" transform="translate(80,60)" clip-path="url(#clipb9dfa1xyplot)"><g class="scatterlayer mlayer"><g class="trace scatter trace3a3647" style="stroke-miterlimit: 2; opacity: 1;"><g class="fills"/><g class="errorbars"/><g class="lines"><path class="js-line" d="M0,329.53L3.65,303.55L7.3,289.73L10.95,281.42L14.59,278.22L18.24,277.11L21.89,283.01L25.54,293.85L29.19,301.15L32.84,315.33L36.49,326.34L40.14,335.82L43.78,342L47.43,338.15L51.08,330.47L54.73,316.87L58.38,297.02L62.03,278.22L65.68,249.93L76.62,181.77L80.27,161.32L83.92,147.8L87.57,137.88L91.22,132.13L94.86,130.2L98.51,125.33L102.16,134.06L109.46,148.24L113.11,152.67L116.76,151.7L120.41,148.78L124.05,146.37L127.7,145.44L135,151.94L138.65,155.57L142.3,155.57L145.95,154.61L149.59,150.73L153.24,145.44L156.89,141.67L160.54,133.1L164.19,125.94L167.84,122.39L178.78,107.38L182.43,101.09L186.08,96.16L189.73,88.16L200.68,61.94L204.32,56.94L211.62,56.84L215.27,58.01L218.92,59.91L222.57,62.96L226.22,67.57L229.86,68L233.51,69.67L237.16,69.67L240.81,70L244.46,68.62L248.11,69L251.76,67.57L262.7,67.57L266.35,64.98L273.65,61.22L277.3,60.92L280.95,61.94L284.59,65.46L288.24,70L291.89,76.94L299.19,96.16L302.84,103.29L306.49,114.63L310.14,120.41L313.78,121.4L317.43,116.54L321.08,105.34L324.73,101.09L328.38,102.07L332.03,106.36L335.68,106.94L339.32,109.41L346.62,120.32L350.27,128.26L353.92,130.2L357.57,119.38L361.22,119.42L364.86,114.44L368.51,107.91L372.16,103.05L383.11,85.13L386.76,83.09L390.41,79L394.05,79L397.7,75.91L401.35,71L405,66.51L408.65,59.91L415.95,44.37L419.59,40.15L430.54,27.26L434.19,24.32L437.84,21.17L441.49,20.11L445.14,20.69L448.78,19.59L452.43,20.69L456.08,20.69L463.38,19.06L467.03,18L470.68,20.11L474.32,23.98L481.62,28.34L485.27,28.34L488.92,28.34L492.57,27.45L503.51,20.69L507.16,21.79L510.81,27.26L514.46,34.82L518.11,42.26L521.76,51.68L525.41,54.78L529.05,59.08L532.7,60.92L536.35,64.98L540,68.62" style="vector-effect: none; fill: none; stroke: rgb(99, 110, 250); stroke-opacity: 1; stroke-width: 2px; opacity: 1;"/></g><g class="points"/><g class="text"/></g></g></g></g><path class="xlines-above crisp" d="M0,0" style="fill: none;"/><path class="ylines-above crisp" d="M0,0" style="fill: none;"/><g class="overlines-above"/><g class="xaxislayer-above"/><g class="yaxislayer-above"/><g class="overaxes-above"/></g></g><g class="polarlayer"/><g class="smithlayer"/><g class="ternarylayer"/><g class="geolayer"/><g class="funnelarealayer"/><g class="pielayer"/><g class="iciclelayer"/><g class="treemaplayer"/><g class="sunburstlayer"/><g class="glimages"/><defs id="topdefs-b9dfa1"><g class="clips"/></defs><g class="layer-above"><g class="imagelayer"/><g class="shapelayer"/></g><g class="infolayer"><g class="g-gtitle"/></g></svg>