<svg class="main-svg" xmlns="http://www.w3.org/2000/svg" xmlns:xlink="http://www.w3.org/1999/xlink" width="700" height="500" style="" viewBox="0 0 700 500"><rect x="0" y="0" width="700" height="500" style="fill: rgb(255, 255, 255); fill-opacity: 1;"/><defs id="defs-ce0487"><g class="clips"><clipPath id="clipce0487xyplot" class="plotclip"><rect width="540" height="360"/></clipPath><clipPath class="axesclip" id="clipce0487x"><rect x="80" y="0" width="540" height="500"/></clipPath><clipPath class="axesclip" id="clipce0487y"><rect x="0" y="60" width="700" height="360"/></clipPath><clipPath class="axesclip" id="clipce0487xy"><rect x="80" y="60" width="540" height="360"/></clipPath></g><g class="gradients"/><g class="patterns"/></defs><g class="bglayer"/><g class="layer-below"><g class="imagelayer"/><g class="shapelayer"/></g><g class="cartesianlayer"><g class="subplot xy"><g class="layer-subplot"><g class="shapelayer"/><g class="imagelayer"/></g><g class="minor-gridlayer"><g class="x"/><g class="y"/></g><g class="gridlayer"><g class="x"/><g class="y"/></g><g class="zerolinelayer"/><g class="layer-between"><g class="shapelayer"/><g class="imagelayer"/></g><path class="xlines-below"/><path class="ylines-below"/><g class="overlines-below"/><g class="xaxislayer-below"/><g class="yaxislayer-below"/><g class="overaxes-below"/><g class="overplot"><g class="xy" transform="translate(80,60)" clip-path="url(#clipce0487xyplot)"><g class="scatterlayer mlayer"><g class="trace scatter tracecf96da" style="stroke-miterlimit: 2; opacity: 1;"><g class="fills"/><g class="errorbars"/><g class="lines"><path class="js-line" d="M0,325.97L3.67,319.16L7.35,316.51L14.69,331.9L18.37,334.92L22.04,330.84L25.71,328.97L33.06,317.52L36.73,308.22L40.41,309.86L44.08,325.41L47.76,337.78L51.43,342L55.1,334.05L58.78,315.91L66.12,297.17L69.8,295L73.47,291.18L77.14,279.08L80.82,269.89L84.49,263.41L88.16,257.15L91.84,248.54L99.18,234.06L102.86,229.78L106.53,227.75L110.2,228.68L113.88,229.41L117.55,228.31L121.22,225.7L124.9,218.44L132.24,203.39L135.92,200.3L146.94,193.38L150.61,190.45L154.29,188.33L157.96,185.33L161.63,181.84L165.31,176.81L172.65,165.55L176.33,158.52L180,152.38L183.67,144.68L191.02,127.42L194.69,119.63L205.71,102.49L209.39,98.83L213.06,95.3L216.73,94.28L231.43,90.15L235.1,88.17L238.78,85.18L242.45,81.12L260.82,58.13L264.49,54.75L268.16,53.04L271.84,52.33L279.18,53.96L282.86,54.75L286.53,55.32L290.2,53.41L301.22,53.96L304.9,56.44L312.24,58.13L315.92,60.91L319.59,61.46L323.27,63.5L326.94,65.57L330.61,65.57L334.29,65.3L337.96,64.21L341.63,63.66L345.31,64.21L356.33,65.85L360,64.76L371.02,65.85L374.69,67.47L382.04,68.01L385.71,69.62L389.39,70.15L393.06,72.28L396.73,73.34L400.41,72.81L404.08,72.28L407.76,70.15L415.1,61.93L418.78,57.18L426.12,49.02L429.8,44.61L437.14,38.95L440.82,35.09L451.84,29.51L455.51,29.06L462.86,27.27L466.53,27.25L470.2,27.27L473.88,26.11L488.57,18.59L492.24,18L495.92,18.59L499.59,20.34L506.94,23.81L510.61,26.68L517.96,34.34L521.63,40.09L525.31,45.73L528.98,49.05L540,56.44" style="vector-effect: none; fill: none; stroke: rgb(99, 110, 250); stroke-opacity: 1; stroke-width: 2px; opacity: 1;"/></g><g class="points"/><g class="text"/></g></g></g></g><path class="xlines-above crisp" d="M0,0" style="fill: none;"/><path class="ylines-above crisp" d="M0,0" style="fill: none;"/><g class="overlines-above"/><g class="xaxislayer-above"/><g class="yaxislayer-above"/><g class="overaxes-above"/></g></g><g class="polarlayer"/><g class="smithlayer"/><g class="ternarylayer"/><g class="geolayer"/><g class="funnelarealayer"/><g class="pielayer"/><g class="iciclelayer"/><g class="treemaplayer"/><g class="sunburstlayer"/><g class="glimages"/><defs id="topdefs-ce0487"><g class="clips"/></defs><g class="layer-above"><g class="imagelayer"/><g class="shapelayer"/></g><g class="infolayer"><g class="g-gtitle"/></g></svg>