<svg class="main-svg" xmlns="http://www.w3.org/2000/svg" xmlns:xlink="http://www.w3.org/1999/xlink" width="700" height="500" style="" viewBox="0 0 700 500"><rect x="0" y="0" width="700" height="500" style="fill: rgb(255, 255, 255); fill-opacity: 1;"/><defs id="defs-204e72"><g class="clips"><clipPath id="clip204e72xyplot" class="plotclip"><rect width="540" height="360"/></clipPath><clipPath class="axesclip" id="clip204e72x"><rect x="80" y="0" width="540" height="500"/></clipPath><clipPath class="axesclip" id="clip204e72y"><rect x="0" y="60" width="700" height="360"/></clipPath><clipPath class="axesclip" id="clip204e72xy"><rect x="80" y="60" width="540" height="360"/></clipPath></g><g class="gradients"/><g class="patterns"/></defs><g class="bglayer"/><g class="layer-below"><g class="imagelayer"/><g class="shapelayer"/></g><g class="cartesianlayer"><g class="subplot xy"><g class="layer-subplot"><g class="shapelayer"/><g class="imagelayer"/></g><g class="minor-gridlayer"><g class="x"/><g class="y"/></g><g class="gridlayer"><g class="x"/><g class="y"/></g><g class="zerolinelayer"/><g class="layer-between"><g class="shapelayer"/><g class="imagelayer"/></g><path class="xlines-below"/><path class="ylines-below"/><g class="overlines-below"/><g class="xaxislayer-below"/><g class="yaxislayer-below"/><g class="overaxes-below"/><g class="overplot"><g class="xy" transform="translate(80,60)" clip-path="url(#clip204e72xyplot)"><g class="scatterlayer mlayer"><g class="trace scatter trace5f31f9" style="stroke-miterlimit: 2; opacity: 1;"><g class="fills"/><g class="errorbars"/><g class="lines"><path class="js-line" d="M0,314.27L3.8,319.98L7.61,328.59L11.41,324.78L15.21,322.53L22.82,324.05L26.62,331.8L30.42,332.87L34.23,331.98L38.03,330.02L41.83,335.85L45.63,342L49.44,335.5L53.24,321.47L57.04,302.43L60.85,300.22L64.65,306.8L68.45,307.88L72.25,298.54L79.86,265.99L83.66,252.02L91.27,235.47L95.07,231.79L102.68,225.05L106.48,220.9L110.28,217.89L114.08,217.24L121.69,215.29L125.49,213.98L129.3,213.01L133.1,213.01L136.9,217.29L140.7,216.68L144.51,214.85L148.31,210.55L155.92,199.82L159.72,192.01L163.52,185.34L167.32,180.5L171.13,175.97L174.93,172.7L186.34,150.19L190.14,141.22L205.35,108.95L209.15,101.13L212.96,92.3L216.76,86.29L220.56,81.71L224.37,79.64L228.17,79.4L231.97,75.51L235.77,72.38L239.58,66.02L243.38,61.99L247.18,60.87L254.79,59.33L258.59,57.78L262.39,53.88L266.2,48.34L270,49.14L273.8,50.72L277.61,56.22L281.41,63.18L285.21,68.5L289.01,72.25L292.82,73L296.62,71.5L300.42,72.25L304.23,74.73L311.83,76.29L315.63,72.38L323.24,66.99L327.04,65.47L330.85,66.23L334.65,70.75L338.45,76.7L342.25,80.17L346.06,82.48L349.86,80.94L353.66,78.62L357.46,77.44L361.27,79.64L365.07,84.01L372.68,92.3L376.48,92.3L380.28,93.79L384.08,97.48L387.89,101.13L391.69,101.34L399.3,93.04L403.1,91.55L410.7,90.06L414.51,85.53L422.11,77.85L425.92,75.97L429.72,74.48L433.52,70L437.32,63.94L441.13,52.3L444.93,44.34L448.73,38.66L452.54,35.37L456.34,33.72L475.35,19.64L479.15,20.45L482.96,19.64L486.76,19.64L498.17,19.64L501.97,18L505.77,18.82L509.58,18L517.18,23.69L520.99,27.88L524.79,32.48L528.59,35.62L536.2,44.13L540,46.74" style="vector-effect: none; fill: none; stroke: rgb(99, 110, 250); stroke-opacity: 1; stroke-width: 2px; opacity: 1;"/></g><g class="points"/><g class="text"/></g></g></g></g><path class="xlines-above crisp" d="M0,0" style="fill: none;"/><path class="ylines-above crisp" d="M0,0" style="fill: none;"/><g class="overlines-above"/><g class="xaxislayer-above"/><g class="yaxislayer-above"/><g class="overaxes-above"/></g></g><g class="polarlayer"/><g class="smithlayer"/><g class="ternarylayer"/><g class="geolayer"/><g class="funnelarealayer"/><g class="pielayer"/><g class="iciclelayer"/><g class="treemaplayer"/><g class="sunburstlayer"/><g class="glimages"/><defs id="topdefs-204e72"><g class="clips"/></defs><g class="layer-above"><g class="imagelayer"/><g class="shapelayer"/></g><g class="infolayer"><g class="g-gtitle"/></g></svg>