<svg class="main-svg" xmlns="http://www.w3.org/2000/svg" xmlns:xlink="http://www.w3.org/1999/xlink" width="700" height="500" style="" viewBox="0 0 700 500"><rect x="0" y="0" width="700" height="500" style="fill: rgb(255, 255, 255); fill-opacity: 1;"/><defs id="defs-bce474"><g class="clips"><clipPath id="clipbce474xyplot" class="plotclip"><rect width="540" height="360"/></clipPath><clipPath class="axesclip" id="clipbce474x"><rect x="80" y="0" width="540" height="500"/></clipPath><clipPath class="axesclip" id="clipbce474y"><rect x="0" y="60" width="700" height="360"/></clipPath><clipPath class="axesclip" id="clipbce474xy"><rect x="80" y="60" width="540" height="360"/></clipPath></g><g class="gradients"/><g class="patterns"/></defs><g class="bglayer"/><g class="layer-below"><g class="imagelayer"/><g class="shapelayer"/></g><g class="cartesianlayer"><g class="subplot xy"><g class="layer-subplot"><g class="shapelayer"/><g class="imagelayer"/></g><g class="minor-gridlayer"><g class="x"/><g class="y"/></g><g class="gridlayer"><g class="x"/><g class="y"/></g><g class="zerolinelayer"/><g class="layer-between"><g class="shapelayer"/><g class="imagelayer"/></g><path class="xlines-below"/><path class="ylines-below"/><g class="overlines-below"/><g class="xaxislayer-below"/><g class="yaxislayer-below"/><g class="overaxes-below"/><g class="overplot"><g class="xy" transform="translate(80,60)" clip-path="url(#clipbce474xyplot)"><g class="scatterlayer mlayer"><g class="trace scatter trace4d2ade" style="stroke-miterlimit: 2; opacity: 1;"><g class="fills"/><g class="errorbars"/><g class="lines"><path class="js-line" d="M0,327.06L3.72,328.45L7.45,326.71L11.17,315.87L14.9,310.55L18.62,308.43L22.34,319.43L29.79,338.48L33.52,337.18L37.24,319.2L40.97,313.33L44.69,315.87L48.41,330.5L52.14,342L55.86,326.01L59.59,305.56L63.31,279.88L70.76,247.83L74.48,234.67L81.93,209.95L85.66,204.2L89.38,201.94L93.1,201.36L96.83,202.33L100.55,197.92L104.28,194.43L108,192.92L111.72,194.57L115.45,197.82L119.17,200.12L122.9,200.12L126.62,198.75L130.34,198.29L134.07,198.91L137.79,201.36L141.52,200.38L145.24,197.43L152.69,190.31L156.41,189.35L160.14,185L163.86,177.55L171.31,156.57L175.03,149.29L182.48,135.9L186.21,128.93L193.66,113.83L197.38,108L204.83,99.87L208.55,97.57L227.17,89.57L230.9,89.01L234.62,87.88L238.34,87.56L245.79,84.55L249.52,80.89L256.97,68.51L260.69,65.46L264.41,59.88L268.14,60.47L271.86,59.28L275.59,60.5L283.03,67.29L286.76,72.73L294.21,85.76L297.93,94.66L301.66,99.87L305.38,101.58L309.1,101.58L312.83,99.3L320.28,97.57L324,96.41L327.72,98.72L331.45,99.3L335.17,102.15L338.9,103.25L350.07,106.23L353.79,111.09L357.52,116.53L361.24,123.99L364.97,127.84L368.69,130.56L372.41,129.85L376.14,132.71L379.86,133.28L383.59,131.1L387.31,130.02L391.03,127.3L394.76,125.53L398.48,121.77L405.93,106.66L409.66,97.57L413.38,90.7L417.1,86.36L424.55,75.94L428.28,69.12L435.72,50.82L439.45,44.46L443.17,35.08L446.9,31.84L450.62,30.75L454.34,28.55L458.07,27.23L461.79,25.07L476.69,18L480.41,18L487.86,23.8L491.59,27.23L495.31,30.12L499.03,36.37L506.48,55.08L510.21,65.46L517.66,78.65L521.38,83.3L525.1,89.35L528.83,88.76L536.28,87.56L540,86.17" style="vector-effect: none; fill: none; stroke: rgb(99, 110, 250); stroke-opacity: 1; stroke-width: 2px; opacity: 1;"/></g><g class="points"/><g class="text"/></g></g></g></g><path class="xlines-above crisp" d="M0,0" style="fill: none;"/><path class="ylines-above crisp" d="M0,0" style="fill: none;"/><g class="overlines-above"/><g class="xaxislayer-above"/><g class="yaxislayer-above"/><g class="overaxes-above"/></g></g><g class="polarlayer"/><g class="smithlayer"/><g class="ternarylayer"/><g class="geolayer"/><g class="funnelarealayer"/><g class="pielayer"/><g class="iciclelayer"/><g class="treemaplayer"/><g class="sunburstlayer"/><g class="glimages"/><defs id="topdefs-bce474"><g class="clips"/></defs><g class="layer-above"><g class="imagelayer"/><g class="shapelayer"/></g><g class="infolayer"><g class="g-gtitle"/></g></svg>