<svg class="main-svg" xmlns="http://www.w3.org/2000/svg" xmlns:xlink="http://www.w3.org/1999/xlink" width="700" height="500" style="" viewBox="0 0 700 500"><rect x="0" y="0" width="700" height="500" style="fill: rgb(255, 255, 255); fill-opacity: 1;"/><defs id="defs-f88d43"><g class="clips"><clipPath id="clipf88d43xyplot" class="plotclip"><rect width="540" height="360"/></clipPath><clipPath class="axesclip" id="clipf88d43x"><rect x="80" y="0" width="540" height="500"/></clipPath><clipPath class="axesclip" id="clipf88d43y"><rect x="0" y="60" width="700" height="360"/></clipPath><clipPath class="axesclip" id="clipf88d43xy"><rect x="80" y="60" width="540" height="360"/></clipPath></g><g class="gradients"/><g class="patterns"/></defs><g class="bglayer"/><g class="layer-below"><g class="imagelayer"/><g class="shapelayer"/></g><g class="cartesianlayer"><g class="subplot xy"><g class="layer-subplot"><g class="shapelayer"/><g class="imagelayer"/></g><g class="minor-gridlayer"><g class="x"/><g class="y"/></g><g class="gridlayer"><g class="x"/><g class="y"/></g><g class="zerolinelayer"/><g class="layer-between"><g class="shapelayer"/><g class="imagelayer"/></g><path class="xlines-below"/><path class="ylines-below"/><g class="overlines-below"/><g class="xaxislayer-below"/><g class="yaxislayer-below"/><g class="overaxes-below"/><g class="overplot"><g class="xy" transform="translate(80,60)" clip-path="url(#clipf88d43xyplot)"><g class="scatterlayer mlayer"><g class="trace scatter trace59c1f2" style="stroke-miterlimit: 2; opacity: 1;"><g class="fills"/><g class="errorbars"/><g class="lines"><path class="js-line" d="M0,337.14L3.72,331.91L7.45,329.97L11.17,327.04L14.9,334.27L18.62,342L22.34,338.08L26.07,331.61L29.79,316.45L33.52,309.15L37.24,311.6L40.97,311.76L44.69,322.99L48.41,326.55L52.14,320.66L55.86,322.52L59.59,327.53L63.31,334.78L67.03,337.14L70.76,326.05L74.48,306.68L78.21,291.15L81.93,279.52L85.66,266.85L89.38,250.58L93.1,239.51L96.83,240.08L100.55,237.81L104.28,240.08L108,237.81L111.72,231.48L119.17,214.04L122.9,210.76L126.62,211.35L130.34,214.27L134.07,215.43L137.79,214.66L141.52,213.1L145.24,209.58L148.97,206.01L152.69,200.45L163.86,185.1L167.59,180.98L175.03,172.08L178.76,163.07L182.48,153.3L186.21,140.72L197.38,110.92L201.1,103.95L212.28,93.95L216,88.39L219.72,82.74L223.45,78.45L230.9,68.94L234.62,64.47L245.79,56.12L249.52,57.2L256.97,49.92L260.69,49.17L264.41,48.35L268.14,48.42L271.86,54.58L275.59,58.01L283.03,63.72L286.76,64.51L290.48,64.47L294.21,66.71L297.93,68.36L301.66,68.94L305.38,69.68L309.1,71.9L335.17,103.25L338.9,106.76L342.62,114.35L346.34,119.76L350.07,123.24L353.79,125.34L357.52,125.95L361.24,125.34L364.97,126.03L368.69,125.74L372.41,124.42L376.14,126.4L379.86,119.09L383.59,129.49L398.48,150.74L402.21,151.76L405.93,150.4L409.66,145.56L413.38,140.3L417.1,132.22L420.83,119.09L424.55,112.3L435.72,84.17L439.45,77L446.9,62.35L450.62,57.65L454.34,51.4L458.07,49.17L461.79,45.42L465.52,45.42L472.97,39.34L476.69,37.8L480.41,34.71L484.14,30.02L487.86,26.43L491.59,20.47L495.31,18L499.03,19.55L510.21,37.8L513.93,46.93L517.66,52.14L521.38,61.45L532.55,79.88L536.28,83.46L540,89.79" style="vector-effect: none; fill: none; stroke: rgb(99, 110, 250); stroke-opacity: 1; stroke-width: 2px; opacity: 1;"/></g><g class="points"/><g class="text"/></g></g></g></g><path class="xlines-above crisp" d="M0,0" style="fill: none;"/><path class="ylines-above crisp" d="M0,0" style="fill: none;"/><g class="overlines-above"/><g class="xaxislayer-above"/><g class="yaxislayer-above"/><g class="overaxes-above"/></g></g><g class="polarlayer"/><g class="smithlayer"/><g class="ternarylayer"/><g class="geolayer"/><g class="funnelarealayer"/><g class="pielayer"/><g class="iciclelayer"/><g class="treemaplayer"/><g class="sunburstlayer"/><g class="glimages"/><defs id="topdefs-f88d43"><g class="clips"/></defs><g class="layer-above"><g class="imagelayer"/><g class="shapelayer"/></g><g class="infolayer"><g class="g-gtitle"/></g></svg>