<svg class="main-svg" xmlns="http://www.w3.org/2000/svg" xmlns:xlink="http://www.w3.org/1999/xlink" width="700" height="500" style="" viewBox="0 0 700 500"><rect x="0" y="0" width="700" height="500" style="fill: rgb(255, 255, 255); fill-opacity: 1;"/><defs id="defs-0df43a"><g class="clips"><clipPath id="clip0df43axyplot" class="plotclip"><rect width="540" height="360"/></clipPath><clipPath class="axesclip" id="clip0df43ax"><rect x="80" y="0" width="540" height="500"/></clipPath><clipPath class="axesclip" id="clip0df43ay"><rect x="0" y="60" width="700" height="360"/></clipPath><clipPath class="axesclip" id="clip0df43axy"><rect x="80" y="60" width="540" height="360"/></clipPath></g><g class="gradients"/><g class="patterns"/></defs><g class="bglayer"/><g class="layer-below"><g class="imagelayer"/><g class="shapelayer"/></g><g class="cartesianlayer"><g class="subplot xy"><g class="layer-subplot"><g class="shapelayer"/><g class="imagelayer"/></g><g class="minor-gridlayer"><g class="x"/><g class="y"/></g><g class="gridlayer"><g class="x"/><g class="y"/></g><g class="zerolinelayer"/><g class="layer-between"><g class="shapelayer"/><g class="imagelayer"/></g><path class="xlines-below"/><path class="ylines-below"/><g class="overlines-below"/><g class="xaxislayer-below"/><g class="yaxislayer-below"/><g class="overaxes-below"/><g class="overplot"><g class="xy" transform="translate(80,60)" clip-path="url(#clip0df43axyplot)"><g class="scatterlayer mlayer"><g class="trace scatter trace54a2f8" style="stroke-miterlimit: 2; opacity: 1;"><g class="fills"/><g class="errorbars"/><g class="lines"><path class="js-line" d="M0,313.54L3.8,305.99L7.61,302.49L15.21,305.99L19.01,312.27L30.42,333.23L34.23,337.02L38.03,340.1L41.83,342L45.63,340.76L49.44,331.96L53.24,314.8L57.04,293.94L60.85,278.06L64.65,268L68.45,259.87L72.25,244.96L76.06,233.44L79.86,218.09L83.66,207.51L87.46,202.11L91.27,200.59L95.07,201.33L102.68,209.81L106.48,210.57L110.28,207.51L114.08,201.33L121.69,187.82L125.49,183.21L129.3,178.53L133.1,176.18L140.7,168.21L144.51,162.53L148.31,156.11L152.11,154.27L155.92,152.6L159.72,152.6L163.52,151.76L167.32,147.36L171.13,145.74L174.93,140.86L182.54,130.92L186.34,124.15L190.14,118.46L193.94,106.71L197.75,92.34L201.55,81.7L205.35,71.08L209.15,64.57L212.96,59.53L216.76,56.73L220.56,55.77L224.37,56.73L231.97,60.43L235.77,59.53L239.58,59.53L243.38,60.43L247.18,59.57L250.99,55.91L254.79,51.34L258.59,43L262.39,33.55L266.2,27.39L270,27.39L273.8,21.8L281.41,21.94L285.21,23.67L289.01,26.18L292.82,29.71L296.62,35.63L300.42,43.94L308.03,68.93L311.83,87.94L315.63,100.15L319.44,106.97L323.24,107.6L327.04,104.08L330.85,103.13L334.65,99.52L338.45,96.7L342.25,91.47L349.86,80.37L353.66,79.09L361.27,87.05L365.07,85.28L368.87,92.34L372.68,96.7L376.48,99.04L380.28,100.42L384.08,94.96L387.89,86.17L391.69,74.45L395.49,71.08L399.3,71.08L403.1,57.63L406.9,54.82L410.7,53.18L418.31,43.94L422.11,37.36L425.92,32.6L429.72,30.68L433.52,30.15L437.32,30.68L444.93,28.31L448.73,23.89L452.54,26.46L456.34,26.18L463.94,23.67L467.75,20.87L471.55,18.99L475.35,18.04L479.15,21.94L482.96,18L486.76,19.93L490.56,20.87L501.97,18.04L505.77,19.97L509.58,18.99L513.38,22.74L517.18,23.33L520.99,20.87L524.79,21.8L528.59,24.87L532.39,31.99L536.2,42.07L540,48.4" style="vector-effect: none; fill: none; stroke: rgb(99, 110, 250); stroke-opacity: 1; stroke-width: 2px; opacity: 1;"/></g><g class="points"/><g class="text"/></g></g></g></g><path class="xlines-above crisp" d="M0,0" style="fill: none;"/><path class="ylines-above crisp" d="M0,0" style="fill: none;"/><g class="overlines-above"/><g class="xaxislayer-above"/><g class="yaxislayer-above"/><g class="overaxes-above"/></g></g><g class="polarlayer"/><g class="smithlayer"/><g class="ternarylayer"/><g class="geolayer"/><g class="funnelarealayer"/><g class="pielayer"/><g class="iciclelayer"/><g class="treemaplayer"/><g class="sunburstlayer"/><g class="glimages"/><defs id="topdefs-0df43a"><g class="clips"/></defs><g class="layer-above"><g class="imagelayer"/><g class="shapelayer"/></g><g class="infolayer"><g class="g-gtitle"/></g></svg>