<svg class="main-svg" xmlns="http://www.w3.org/2000/svg" xmlns:xlink="http://www.w3.org/1999/xlink" width="700" height="500" style="" viewBox="0 0 700 500"><rect x="0" y="0" width="700" height="500" style="fill: rgb(255, 255, 255); fill-opacity: 1;"/><defs id="defs-525dd4"><g class="clips"><clipPath id="clip525dd4xyplot" class="plotclip"><rect width="540" height="360"/></clipPath><clipPath class="axesclip" id="clip525dd4x"><rect x="80" y="0" width="540" height="500"/></clipPath><clipPath class="axesclip" id="clip525dd4y"><rect x="0" y="60" width="700" height="360"/></clipPath><clipPath class="axesclip" id="clip525dd4xy"><rect x="80" y="60" width="540" height="360"/></clipPath></g><g class="gradients"/><g class="patterns"/></defs><g class="bglayer"/><g class="layer-below"><g class="imagelayer"/><g class="shapelayer"/></g><g class="cartesianlayer"><g class="subplot xy"><g class="layer-subplot"><g class="shapelayer"/><g class="imagelayer"/></g><g class="minor-gridlayer"><g class="x"/><g class="y"/></g><g class="gridlayer"><g class="x"/><g class="y"/></g><g class="zerolinelayer"/><g class="layer-between"><g class="shapelayer"/><g class="imagelayer"/></g><path class="xlines-below"/><path class="ylines-below"/><g class="overlines-below"/><g class="xaxislayer-below"/><g class="yaxislayer-below"/><g class="overaxes-below"/><g class="overplot"><g class="xy" transform="translate(80,60)" clip-path="url(#clip525dd4xyplot)"><g class="scatterlayer mlayer"><g class="trace scatter trace8cc669" style="stroke-miterlimit: 2; opacity: 1;"><g class="fills"/><g class="errorbars"/><g class="lines"><path class="js-line" d="M0,342L3.4,336.08L6.79,328.12L10.19,314.93L13.58,307.74L16.98,296.16L20.38,292.41L23.77,293.67L27.17,302.82L33.96,331.18L37.36,336.8L40.75,326.36L44.15,312.69L47.55,298.61L50.94,288.15L54.34,275.18L57.74,250.58L71.32,171.65L74.72,158.7L78.11,146.37L81.51,139.7L84.91,138.57L88.3,138.57L91.7,148.01L95.09,153.41L98.49,155.54L101.89,152.34L108.68,139.7L112.08,138L115.47,143.06L118.87,151.27L125.66,170.94L129.06,175.87L132.45,178.47L135.85,178.47L139.25,176.39L142.64,175.87L146.04,173.77L149.43,163.87L152.83,152.34L156.23,144.17L163.02,136.86L166.42,131.11L183.4,91.55L186.79,81.78L193.58,64.7L196.98,56.18L203.77,41.27L207.17,35.8L213.96,29.98L217.36,28.01L224.15,26.03L227.55,24.04L230.94,23.38L234.34,21.37L237.74,22.04L241.13,21.37L261.51,18L264.91,20.03L268.3,22.71L271.7,27.35L278.49,39.27L281.89,47.19L288.68,56.81L292.08,58.7L295.47,61.2L298.87,62.45L302.26,63.39L305.66,69.79L312.45,79.93L315.85,83L319.25,84.83L322.64,90.85L326.04,97.79L329.43,102.51L332.83,106.3L336.23,104.5L343.02,98.41L346.42,99.06L349.81,100.79L353.21,104.5L356.6,106.48L360,104.5L363.4,103.29L366.79,99.64L373.58,89.65L376.98,87.25L383.77,83.61L387.17,79.31L397.36,53.42L400.75,47.84L407.55,39.27L410.94,36.58L414.34,38.98L417.74,45.23L427.92,89.65L431.32,100.79L438.11,122.56L441.51,131.69L444.91,135.15L448.3,135.72L451.7,135.76L455.09,137.9L461.89,139.7L465.28,136.86L472.08,132.85L475.47,129.94L485.66,120.87L489.06,119.16L495.85,124.25L499.25,128.69L502.64,134.68L506.04,143.06L523.02,188.47L526.42,194.46L529.81,200.65L533.21,199.42L536.6,199.71L540,201.95" style="vector-effect: none; fill: none; stroke: rgb(99, 110, 250); stroke-opacity: 1; stroke-width: 2px; opacity: 1;"/></g><g class="points"/><g class="text"/></g></g></g></g><path class="xlines-above crisp" d="M0,0" style="fill: none;"/><path class="ylines-above crisp" d="M0,0" style="fill: none;"/><g class="overlines-above"/><g class="xaxislayer-above"/><g class="yaxislayer-above"/><g class="overaxes-above"/></g></g><g class="polarlayer"/><g class="smithlayer"/><g class="ternarylayer"/><g class="geolayer"/><g class="funnelarealayer"/><g class="pielayer"/><g class="iciclelayer"/><g class="treemaplayer"/><g class="sunburstlayer"/><g class="glimages"/><defs id="topdefs-525dd4"><g class="clips"/></defs><g class="layer-above"><g class="imagelayer"/><g class="shapelayer"/></g><g class="infolayer"><g class="g-gtitle"/></g></svg>